<svg xmlns="http://www.w3.org/2000/svg" viewBox="0 0 24 24"><path d="M8.067 18.754c-.213-.12-.222-.13-.33-.374l-.111-.25.07-.222c.09-.28.48-1.04 1.018-1.98.484-.848.663-1.186.639-1.209-.015-.015-2.383.053-4.902.142-1.156.041-1.182.038-1.362-.16l-.112-.125.072-.233c.124-.4.243-.695.497-1.222.449-.933.938-1.712 2.142-3.414 1.519-2.148 1.908-2.742 2.423-3.7.468-.873.929-1.699 1.085-1.946l.124-.197.839-.377c.784-.352.849-.375.99-.359.334.04.62.252.694.516.285 1.017-1.39 3.655-5.068 7.987-.363.427-.664.79-.67.806l.21.03s1.087.028 2.146.064c1.059.036 1.935.054 1.947.04.012-.014.334-.75.716-1.636.723-1.676 1.48-3.259 1.939-4.052 1.349-2.337 2.56-3.478 3.693-3.478.536 0 .627.222.365.887-.362.917-1.397 3.26-2.836 6.421l-.84 1.848c-.02.051.413.038 1.602-.046.353-.025.829-.046 1.058-.046.369 0 .432.008.558.071.186.094.254.228.253.503-.002.868-.48 1.484-1.336 1.72-.49.135-.79.143-1.89.053a66.747 66.747 0 0 1-1.148-.1l-.146-.018-.33.744c-.42.946-.782 1.716-.914 1.942-.278.477-.995.91-2.166 1.304a6.159 6.159 0 0 1-.638.193c-.035 0-.162-.056-.283-.124z" fill="#de622c"/><path d="m15.791 23.33-.68-.953-.908-1.274-1.092-1.533-.596-.834c-.689-.955-.85-1.192-.827-1.218l.703-.785.156-.172.072.052.674.487.735.53.315.227.298.215.358.26.458.328c.32.232.286.223.377.095l.697-.989c1.798-2.557 2.304-3.205 3.428-4.405a32.694 32.694 0 0 1 2.69-2.508l.163-.132h1.208l-.19.195a19.243 19.243 0 0 0-2.114 2.646l-.402.608-.325.522c-.271.434-.656 1.084-.988 1.665a64.436 64.436 0 0 0-.972 1.864l-.182.369c-.196.394-.894 1.834-1.14 2.35l-.138.288c-.036.073-.512 1.078-.62 1.309l-.27.575-.31.659-.102.197c-.008.006-.222-.28-.477-.637z" fill="#00979c" style="fill:#1e90ff;fill-opacity:1;stroke-width:.816647"/></svg>