<svg xmlns="http://www.w3.org/2000/svg" viewBox="0 0 24 24"><path d="M4.95 18.416c-.444-.13-.971-.526-1.135-.85-.121-.239-.122-.354-.01-.58.189-.376.859-1.057 1.308-1.326.329-.198.557-.243.995-.199.453.046 1.687.047 2.263.002 2.805-.218 4.204-1.11 4.287-2.734.048-.93-.39-1.645-1.276-2.086-.504-.25-.74-.302-1.401-.305-.846-.004-1.045.061-2.313.761-.74.408-.786.43-.862.387l-.155-.155c-.302-.447.262-2.22 1.533-4.823 1.047-2.143 1.957-3.28 2.7-3.37.23-.029 6.092.041 6.767.08.865.05.809.033.96.287.073.12.127.24.12.267l-.102.251c-.176.382-.514.828-1.004 1.324-.367.373-.63.587-.902.742l-.195.11-.635-.003c-.49-.002-.904-.032-1.808-.127-1.72-.18-2.524-.176-3.374.02l-.28.064-.443 1.017-.464 1.072c-.017.044.045.03.299-.076a7.355 7.355 0 0 1 1.589-.424c.609-.09 1.52-.098 1.989-.016 1.063.187 2 .738 2.48 1.46.524.788.523 1.89-.004 2.973-.567 1.166-1.77 2.37-3.591 3.59-2.567 1.722-4.843 2.633-6.735 2.696-.324.011-.5.003-.603-.028z" fill="#de622c" stroke="#de622c" stroke-width=".001"/><path d="m15.329 23.212-.707-.944-.946-1.262-1.137-1.518-.62-.826c-.717-.946-.884-1.181-.86-1.206l.731-.778.163-.17.074.051.702.483.765.525.328.225.31.212.373.257.476.326c.333.229.298.22.392.093l.726-.979c1.872-2.532 2.398-3.174 3.568-4.362a33.428 33.428 0 0 1 2.8-2.484l.17-.13h1.256l-.197.193a19.255 19.255 0 0 0-2.2 2.62l-.419.602-.338.517c-.282.43-.683 1.073-1.028 1.65a62.765 62.765 0 0 0-1.012 1.845l-.19.365c-.204.39-.93 1.816-1.185 2.328l-.144.285c-.038.072-.534 1.067-.645 1.296l-.282.569-.323.653-.106.196c-.008.005-.23-.278-.496-.631z" fill="#00979c" style="fill:#1e90ff;fill-opacity:1;stroke-width:.829095"/></svg>