<svg viewBox="0 0 24 24" xmlns="http://www.w3.org/2000/svg"><path d="M10.343 19.556c-.213-.12-.222-.13-.33-.374l-.111-.251.071-.221c.09-.281.48-1.04 1.017-1.98.484-.848.663-1.186.639-1.209-.015-.015-2.383.053-4.902.142-1.156.041-1.182.038-1.362-.161l-.112-.124.072-.233c.124-.401.243-.695.497-1.222.449-.933.938-1.712 2.142-3.414 1.519-2.148 1.908-2.742 2.423-3.701.468-.872.929-1.698 1.085-1.945l.124-.197.839-.377c.784-.352.849-.375.99-.359.334.039.62.252.694.516.285 1.017-1.389 3.655-5.068 7.987-.363.427-.664.79-.67.806l.21.029s1.087.029 2.146.065 1.935.054 1.947.04.334-.75.716-1.636c.723-1.676 1.48-3.259 1.939-4.052 1.349-2.337 2.561-3.478 3.693-3.478.536 0 .627.222.365.887-.362.917-1.397 3.259-2.836 6.421l-.839 1.848c-.02.051.412.038 1.601-.046.353-.025.829-.046 1.058-.046.369 0 .432.008.558.071.186.094.254.228.253.503-.002.868-.48 1.484-1.336 1.72-.489.135-.789.143-1.89.053-.551-.045-1.068-.09-1.148-.1l-.146-.018-.33.744c-.42.946-.782 1.716-.914 1.942-.278.477-.995.909-2.166 1.304-.316.107-.602.193-.638.193-.035 0-.162-.056-.283-.124z" fill="#de622c"/></svg>