<svg xmlns="http://www.w3.org/2000/svg" viewBox="0 0 24 24"><path d="M6.713 19.763c-.444-.131-.971-.526-1.135-.851-.121-.238-.122-.353-.009-.579.188-.376.858-1.057 1.307-1.326.329-.198.557-.243.995-.199.453.046 1.687.047 2.263.002 2.805-.218 4.204-1.111 4.287-2.734.048-.931-.389-1.645-1.276-2.086-.504-.251-.739-.302-1.401-.305-.846-.004-1.045.061-2.313.761-.739.408-.786.429-.862.387l-.155-.155c-.302-.447.262-2.221 1.533-4.823 1.047-2.143 1.957-3.28 2.701-3.371.23-.028 6.091.042 6.766.081.865.05.809.033.961.287.072.119.126.239.12.267l-.103.251c-.176.382-.514.828-1.004 1.324-.367.373-.629.587-.902.742l-.195.11-.635-.003c-.489-.002-.904-.032-1.808-.127-1.719-.181-2.524-.176-3.374.02l-.28.064-.443 1.017-.464 1.072c-.017.044.045.029.299-.076.444-.182 1.047-.343 1.589-.424.609-.091 1.521-.098 1.989-.016 1.063.187 2 .738 2.48 1.46.524.788.523 1.89-.004 2.973-.567 1.166-1.77 2.369-3.591 3.59-2.567 1.722-4.843 2.633-6.735 2.696-.324.011-.499.003-.603-.028z" fill="#de622c" stroke="#de622c" stroke-width=".001"/></svg>