<svg viewBox="0 0 16 16" xmlns="http://www.w3.org/2000/svg"><path d="M5.732 15.253l-.845-1.149-1.13-1.536-1.359-1.848-.741-1.006c-.857-1.151-1.057-1.437-1.029-1.468l.875-.946.194-.208.089.063.839.587.914.64.392.273.37.259.446.313.569.396c.398.279.356.268.469.114l.867-1.192c2.237-3.082 2.866-3.864 4.264-5.31.874-.903 2.365-2.251 3.347-3.024l.202-.159h1.502l-.236.236c-.908.909-1.776 1.963-2.629 3.189l-.5.733-.405.629c-.337.524-.816 1.307-1.228 2.008-.194.331-1.012 1.849-1.21 2.247l-.226.444c-.244.475-1.112 2.211-1.417 2.834l-.172.347c-.045.088-.638 1.299-.771 1.577l-.337.693-.386.795-.126.238c-.01.007-.276-.338-.593-.768z" fill="#00979c"/><path d="M1.734 15.965c-.65-.105-1.212-.562-1.508-1.226-.119-.266-.172-.469-.203-.78-.029-.29-.029-11.585 0-11.875.03-.3.083-.51.196-.77.28-.646.796-1.08 1.466-1.231.155-.035.53-.038 5.401-.045 4.722-.006 5.257-.004 5.468.028.259.039.488.111.667.209.159.088.364.236.353.256l-.378.293-.369.277-.29-.101h-10.704l-.137.048c-.369.13-.639.427-.785.865-.035.105-.037.32-.041 6.053-.006 6.616-.017 6.045.132 6.384.1.226.299.444.513.562.279.153-.105.144 5.76.137l5.283-.006.121-.046c.397-.152.693-.492.789-.909.039-.169.039-.231.04-5.401l.001-5.23.85-1.003.006 5.665c.004 4.078 0 5.725-.016 5.882-.092.909-.689 1.675-1.496 1.919l-.196.059-5.401.003c-2.979.002-5.453-.006-5.518-.016z" fill="none"/></svg>