<svg viewBox="0 0 16 16" xmlns="http://www.w3.org/2000/svg"><path d="m5.732 15.253-.845-1.149-1.13-1.536-1.359-1.848-.741-1.006C.8 8.563.6 8.277.628 8.246l.875-.946.194-.208.089.063.839.587.914.64.392.273.37.259.446.313.569.396c.398.279.356.268.469.114l.867-1.192c2.237-3.082 2.866-3.864 4.264-5.31A40.196 40.196 0 0 1 14.263.211l.202-.159h1.502l-.236.236c-.908.909-1.776 1.963-2.629 3.189l-.5.733-.405.629a64.878 64.878 0 0 0-1.228 2.008 76.847 76.847 0 0 0-1.21 2.247l-.226.444c-.244.475-1.112 2.211-1.417 2.834l-.172.347c-.045.088-.638 1.299-.771 1.577l-.337.693-.386.795-.126.238c-.01.007-.276-.338-.593-.768z" fill="#00979c" style="fill:#00b7b7;fill-opacity:1"/><path d="M1.734 15.965c-.65-.105-1.212-.562-1.508-1.226a2.261 2.261 0 0 1-.203-.78c-.029-.29-.029-11.585 0-11.875.03-.3.083-.51.196-.77.28-.646.796-1.08 1.466-1.231.155-.035.53-.038 5.401-.045 4.722-.006 5.257-.004 5.468.028.259.039.488.111.667.209.159.088.364.236.353.256l-.378.293-.369.277-.29-.101H1.833l-.137.048c-.369.13-.639.427-.785.865-.035.105-.037.32-.041 6.053-.006 6.616-.017 6.045.132 6.384.1.226.299.444.513.562.279.153-.105.144 5.76.137l5.283-.006.121-.046a1.28 1.28 0 0 0 .789-.909c.039-.169.039-.231.04-5.401l.001-5.23.85-1.003.006 5.665c.004 4.078 0 5.725-.016 5.882-.092.909-.689 1.675-1.496 1.919l-.196.059-5.401.003c-2.979.002-5.453-.006-5.518-.016z" fill="none"/></svg>