<svg xmlns="http://www.w3.org/2000/svg" viewBox="0 0 16 16" ><path stroke-width="1.217" stroke="#00979c" d="M2.145 14.17c-.386-.134-.536-.464-.353-.775.041-.069.354-.443.696-.83l1.291-1.468 1.188-1.35C6.256 8.286 6.328 8.198 6.328 8.08c0-.124-.083-.263-.274-.461a16.297 16.297 0 0 1-.494-.548l-.498-.56-.671-.756-.253-.279-.2-.22c-.194-.224-.619-.704-1.159-1.307l-.403-.452-.173-.193-.154-.172-.144-.162c-.218-.239-.25-.535-.08-.728a.902.902 0 0 1 .569-.259c.141-.001.405.097.787.291l.432.213.796.39.719.353.298.143.71.346 1.266.625.947.463.281.139.251.114.129.074.084.047c.018 0 .253.11.523.244l1.363.673.247.108.108.06.182.097c.198.083.215.091.606.289l.42.202.134.065.348.177c.864.42.879.43 1.033.651a.539.539 0 0 1-.006.643c-.092.131-.253.285-.297.285l-.26.125-.308.154-.266.134-.481.242-.537.265-.607.304-.384.188-.439.214-.787.393-.691.344-1.314.65-.816.406-.748.373-1.976.979c-1.659.824-1.485.749-1.732.746l-.264-.022z" stroke-miterlimit="4.1" fill="none" style="stroke:#00b7b7;stroke-opacity:1"/></svg>