<svg xmlns="http://www.w3.org/2000/svg" viewBox="0 0 16 16"><path d="M3.948 13.114c-.328-.109-.456-.379-.3-.634.035-.056.301-.362.592-.679l1.098-1.2 1.01-1.104c1.097-1.195 1.158-1.267 1.158-1.363 0-.101-.07-.215-.233-.377l-.42-.448-.424-.458-.571-.619-.216-.228-.17-.18c-.165-.183-.527-.575-.986-1.069l-.343-.37-.147-.158-.131-.141-.123-.132c-.185-.196-.213-.438-.068-.595.103-.112.329-.211.484-.212.12-.001.345.079.669.238l.367.174.677.319.612.289.253.117.604.283 1.077.511.806.379.239.114.214.094.11.061.071.039.445.199 1.159.55.21.089.092.049.154.08.516.236.357.165.114.053.296.144c.735.344.748.351.878.533.119.166.118.359-.005.526-.079.107-.215.233-.252.233l-.221.102-.262.126-.227.11-.409.198-.457.216-.516.249-.326.154-.373.175-.669.322-.588.281-1.118.532-.694.332-.637.305-1.681.8c-1.411.674-1.263.612-1.473.61l-.225-.018z" fill="#00979c"/><path d="M7.249 15.798l-.151-.015c-.482-.036-1.217-.203-1.835-.415-1.292-.445-2.516-1.305-3.434-2.411-.438-.527-.911-1.294-1.159-1.876-.287-.677-.524-1.478-.566-1.917l-.021-.17c-.064-.412-.074-1.309-.021-1.971.02-.248.092-.685.156-.938.276-1.097.803-2.184 1.456-3.005.237-.298.994-1.073 1.258-1.286 1.052-.854 2.322-1.43 3.643-1.652l.498-.066c.211-.014 1.466-.013 1.61.001.243.023.309.032.562.075 1.185.205 2.592.848 3.538 1.619.269.219.78.717 1.033 1.007.635.727 1.193 1.705 1.522 2.668.123.361.264.924.295 1.183l.031.224c.036.245.041.374.041 1.086 0 .88-.002.9-.119 1.513-.135.705-.342 1.303-.698 2.017-.593 1.191-1.528 2.257-2.625 2.994-.916.615-1.817.99-2.913 1.213-.291.059-.28.057-.582.095-.164.021-1.504.045-1.522.027zm1.373-.418l.202-.025c.821-.09 1.681-.357 2.486-.774.765-.397 1.271-.778 1.932-1.457.632-.65.95-1.106 1.356-1.946.313-.646.479-1.148.611-1.834.083-.433.096-.654.097-1.607.001-.627-.003-.693-.054-.996-.219-1.299-.758-2.535-1.502-3.445-.754-.922-1.563-1.59-2.502-2.064-.573-.29-1.573-.62-2.076-.688l-.159-.022c-.522-.075-1.512-.085-2.139-.021-.492.05-1.227.244-1.811.48-.619.248-1.385.697-1.875 1.095-.365.297-1.038.998-1.315 1.371-.52.699-.964 1.595-1.183 2.393-.067.243-.185.798-.202.943l-.03.208c-.028.166-.034.345-.034.927 0 .491.02.977.042 1.012l.022.129c.035.359.214 1.055.392 1.526.271.716.661 1.404 1.136 2.001.233.294.922.987 1.208 1.218.755.61 1.837 1.147 2.793 1.389.171.044.587.125.646.127l.169.023.307.035.178.022c.013.013 1.202-.003 1.305-.018z" fill="#424242"/></svg>