<svg viewBox="0 0 16 16" xmlns="http://www.w3.org/2000/svg"><path d="M3.948 13.114c-.328-.109-.456-.379-.3-.634.035-.056.301-.362.592-.679l1.098-1.2 1.01-1.104c1.097-1.195 1.158-1.267 1.158-1.363 0-.101-.07-.215-.233-.377l-.42-.448-.424-.458-.571-.619-.216-.228-.17-.18c-.165-.183-.527-.575-.986-1.069l-.343-.37-.147-.158-.131-.141-.123-.132c-.185-.196-.213-.438-.068-.595.103-.112.329-.211.484-.212.12-.001.345.079.669.238l.367.174.677.319.612.289.253.117.604.283 1.077.511.806.379.239.114.214.094.11.061.071.039.445.199 1.159.55.21.089.092.049.154.08.516.236.357.165.114.053.296.144c.735.344.748.351.878.533.119.166.118.359-.005.526-.079.107-.215.233-.252.233l-.221.102-.262.126-.227.11-.409.198-.457.216-.516.249-.326.154-.373.175-.669.322-.588.281-1.118.532-.694.332-.637.305-1.681.8c-1.411.674-1.263.612-1.473.61l-.225-.018z" fill="#00b7b7" stroke="#00b7b7" stroke-width=".028"/><path d="M7.309 15.835l-.153-.015c-.486-.036-1.227-.203-1.85-.416-1.302-.446-2.537-1.308-3.462-2.417-.441-.529-.918-1.297-1.168-1.881-.29-.678-.529-1.482-.57-1.921l-.021-.171c-.064-.413-.074-1.312-.021-1.976.02-.249.093-.686.158-.94.279-1.1.809-2.189 1.468-3.012.239-.299 1.003-1.075 1.269-1.289 1.06-.856 2.342-1.433 3.674-1.656l.502-.066c.212-.014 1.478-.013 1.624.001.245.023.311.032.566.075 1.195.205 2.614.85 3.568 1.623.271.219.787.719 1.041 1.01.641.729 1.203 1.709 1.534 2.674.124.362.266.926.298 1.186l.032.224c.037.246.042.375.042 1.089 0 .882-.002.903-.12 1.516-.136.706-.345 1.306-.704 2.021-.598 1.194-1.54 2.262-2.647 3.001-.923.617-1.832.993-2.937 1.216-.294.06-.283.058-.587.095-.166.021-1.516.045-1.534.027zm1.385-.419l.203-.025c.828-.09 1.695-.358 2.506-.776.772-.398 1.282-.78 1.948-1.461.638-.652.958-1.109 1.368-1.951.315-.648.483-1.151.616-1.839.083-.434.097-.656.098-1.611.001-.629-.003-.694-.055-.999-.221-1.302-.765-2.541-1.514-3.454-.761-.924-1.576-1.594-2.523-2.069-.578-.291-1.586-.622-2.093-.689l-.161-.022c-.527-.075-1.524-.085-2.157-.021-.496.051-1.237.245-1.826.481-.624.249-1.397.698-1.89 1.098-.368.298-1.046 1.001-1.326 1.375-.525.7-.972 1.599-1.193 2.398-.067.244-.186.799-.203.945l-.03.208c-.028.167-.035.346-.035.929 0 .492.02.979.043 1.015l.022.129c.036.36.216 1.057.396 1.529.273.718.667 1.407 1.146 2.006.235.295.929.99 1.218 1.221.762.611 1.853 1.149 2.816 1.393.173.044.592.125.652.127l.171.023.309.035.18.022c.013.013 1.212-.003 1.316-.018z" fill="#c5c5c5" stroke="#c5c5c5" stroke-width=".022"/></svg>